<svg xmlns="http://www.w3.org/2000/svg" version="1.1" xmlns:xlink="http://www.w3.org/1999/xlink" xmlns:svgjs="http://svgjs.dev/svgjs" width="1000" height="1000" viewBox="0 0 1000 1000"><rect width="1000" height="1000" fill="#ffffff"></rect><g transform="matrix(0.7,0,0,0.7,150.0000000000001,106.25)"><svg viewBox="0 0 320 360" data-background-color="#ffffff" preserveAspectRatio="xMidYMid meet" height="1125" width="1000" xmlns="http://www.w3.org/2000/svg" xmlns:xlink="http://www.w3.org/1999/xlink"><g id="tight-bounds" transform="matrix(1,0,0,1,0,0)"><svg viewBox="0 0 320 360" height="360" width="320"><g><svg></svg></g><g><svg viewBox="0 0 320 360" height="360" width="320"><g><path xmlns="http://www.w3.org/2000/svg" d="M20.961 227.22l3.726 4.658-1.863-6.056c-0.466-2.795-3.726 0.466-1.863 1.398M25.153 224.425c1.397 2.329 2.795 4.658 2.795 6.987 0 3.261 2.795 4.658 5.123 5.589-3.261-3.726-5.124-13.974-7.918-12.576M204.017 26.929c7.918 0 15.371-0.932 23.756 0.931 20.495 5.124 37.729 15.371 49.374 29.811l32.606 52.169c1.397 13.042 4.192 27.482 3.726 43.319 3.261 0 2.795-4.658 6.521-5.59-3.726 9.316-5.59 20.961-6.521 34.469-2.329-7.453 0-18.632 0.466-24.687-3.261 5.124-5.124 1.397-5.124-0.932 0.466-3.726-1.397-3.261-2.795-4.658-5.124-4.658-8.384-9.782-12.11-17.7 2.329-6.055 2.795-14.905-4.658-19.563-2.329-1.397-5.124-3.726-6.521-7.453-1.863-5.124-5.124-11.179-4.193-19.097 0.466-2.329-6.987 5.124-11.179 1.863-18.166-12.576-36.332-27.016-58.224-39.127-11.645 0-20.029-4.192-24.221-9.316-3.726-4.658-0.932-10.713 4.658-11.179 3.261 0 6.987-0.932 9.782 0.932 0.466-1.863 2.329-4.192 4.657-4.192M157.904 16.215l0.932 0.466c4.658 0.932 6.987 7.453 12.11 5.124 0 3.261 0.466 6.521-0.466 8.85-1.397 3.726-5.59 3.726-8.85 3.726-31.208-1.863-49.374 11.179-68.471 22.358-5.124 3.261-10.713 5.59-14.906 9.782-20.029 18.632-41.921 35.866-47.045 70.335l-4.192 38.195c-0.466 4.192-5.124 8.384-4.192 13.508l3.26 22.824c-3.261-3.261-5.124 0.932-4.192 2.795 0.466 1.397 2.329 6.055 5.124 1.863 3.726 6.987 7.453 20.495 12.576 26.55 15.837 18.632 36.332 35.4 53.101 52.169 4.192-0.932 7.453-0.932 8.384-3.727 1.397 2.795-1.397 5.59-3.726 6.056 7.453 4.658 15.837 8.85 27.016 9.781 14.44 0.932 27.948 3.261 40.524 6.522 6.521-1.863 13.042-2.795 20.029-3.261 2.329 0 3.726-3.726 6.521-4.658l0.466-4.658c2.795 4.192 2.329-1.397 0.466-4.192 3.261 2.795 4.192 5.124 5.589 6.987 0-1.397 3.726-6.521 3.727-0.466l0.931-6.055c1.397-0.932 1.863 5.124 3.261 0.931 1.397-4.192 4.192-0.932 6.987-2.329-0.932 1.863-0.466 5.59 2.794 3.261l3.727-3.261c2.329 5.59 6.055 3.261 7.918 2.329 20.495-13.042 40.99-28.413 60.553-43.784l-0.466 6.055 2.329-7.453c2.329 2.329 4.192 0.466 5.124-0.931 2.795-4.658 6.521-9.316 12.577-13.508-7.453 20.029-16.303 35.866-27.482 48.908l-4.658 5.59c0 3.261-0.932 7.453-4.658 7.918-1.863 0.466-5.59-0.932-8.384 1.863-1.397 1.863 3.261 5.59-0.466 2.795-3.261-2.329-6.521 0-10.248 0.932-2.795 0.932 1.863 3.726 2.795 5.589 0.932 1.863 1.863 3.726 1.398 6.056l-5.124-5.59c-6.055 3.261-9.782 9.316-14.906 13.974-2.329 1.863-1.397 5.124-1.397 7.918-3.261 0-6.987-0.932-8.85 0.932-1.397 1.863-0.932 4.658-0.932 7.453-4.658-0.466-5.124-7.453-9.315-6.056-4.192 0.932-8.85 1.397-12.577 3.727 2.795 5.59-4.658 2.329-3.726 3.26-6.987-4.192-13.042-7.453-20.495-4.658-15.837-5.124-35.4-2.795-49.84-0.931 0-2.329 0.466-4.658-0.466-5.124-0.932 2.329-3.726 1.397-3.26 1.397-8.85-6.055-17.7-9.782-27.016-14.905-8.384 0.932-16.303-3.261-18.632-5.59-6.521-6.055-13.974-2.795-20.029-4.192-13.042-3.261-17.7-16.769-19.098-26.084-0.932-4.658-4.658-6.521-6.055-6.056-6.055-19.563-15.371-37.263-22.824-55.429-1.863-4.658-1.397-9.316-1.397-14.44 2.329 0.932 4.658 0.466 4.192-2.794-2.329-15.371-7.918-27.016-13.974-38.195 3.261-15.837 3.726-34.469 11.179-48.443 6.521-12.576 18.632-19.098 27.016-29.811 2.795-3.726 2.795-8.85 5.59-12.11 9.316-9.316 18.632-19.098 28.879-27.482 4.658-3.726 10.247 0 17.234-1.397 2.329-8.384 11.645-15.837 20.495-13.508 3.726 0.932 11.179-8.85 13.508-9.782 3.726-1.397 1.863 3.726 1.863 6.987 8.85-6.987 20.961-10.713 32.14-14.906" fill="#ce3700" fill-rule="nonzero" stroke="none" stroke-width="1" stroke-linecap="butt" stroke-linejoin="miter" stroke-miterlimit="10" stroke-dasharray="" stroke-dashoffset="0" font-family="none" font-weight="none" font-size="none" text-anchor="none" style="mix-blend-mode: normal" data-fill-palette-color="tertiary"></path></g><g transform="matrix(1,0,0,1,64,155.98668885191347)"><svg viewBox="0 0 192 48.026622296173045" height="48.026622296173045" width="192"><g><svg viewBox="0 0 192 48.026622296173045" height="48.026622296173045" width="192"><g><svg viewBox="0 0 192 48.026622296173045" height="48.026622296173045" width="192"><g><svg viewBox="0 0 192 48.026622296173045" height="48.026622296173045" width="192"><g><svg viewBox="0 0 192 48.026622296173045" height="48.026622296173045" width="192"><g><svg viewBox="0 0 192 48.026622296173045" height="48.026622296173045" width="192"><g transform="matrix(1,0,0,1,0,0)"><svg width="192" viewBox="-4 -56.150001525878906 264.0899963378906 66.05999755859375" height="48.026622296173045" data-palette-color="#ce0200"><path d="M48.68-44.19L48.68-44.19Q48.68-42.48 48.05-40.89 47.41-39.31 47.12-37.65L47.12-37.65Q46.04-36.23 45.12-34.72 44.19-33.2 43.21-31.69 42.24-30.18 41.16-28.78 40.09-27.39 38.72-26.27L38.72-26.27Q38.77-26.22 38.77-26.07L38.77-26.07Q38.77-25.78 38.5-25.61 38.23-25.44 38.33-25.2L38.33-25.2Q37.11-23.93 35.94-22.71 34.77-21.48 33.79-19.97L33.79-19.97Q32.71-19.43 32.03-18.21L32.03-18.21Q31.74-18.21 31.59-18.09 31.45-17.97 31.2-17.87L31.2-17.87Q29.64-15.97 27.93-14.26 26.22-12.55 24.27-11.13L24.27-11.13Q23.54-10.6 22.8-10.16 22.07-9.72 21.39-9.23L21.39-9.23Q20.95-8.94 20.53-8.54 20.12-8.15 19.68-7.81L19.68-7.81Q18.26-6.59 16.89-5.79 15.53-4.98 13.67-4.69L13.67-4.69Q13.53-4.15 13.53-3.52L13.53-3.52 13.53-2.34Q13.53-1.76 13.48-1.15 13.43-0.54 13.13 0L13.13 0 13.13 0.15Q13.13 0.63 13.38 1.1 13.62 1.56 13.62 2.05L13.62 2.05Q13.62 2.39 13.28 2.64L13.28 2.64 14.55 2.64Q14.55 3.32 14.97 3.81 15.38 4.3 15.38 4.54L15.38 4.54Q15.38 5.37 15.21 6.37 15.04 7.37 14.21 7.71L14.21 7.71 14.21 8.01Q14.21 8.5 14.11 8.96 14.01 9.42 13.67 9.86L13.67 9.86Q13.38 9.86 13.11 9.89 12.84 9.91 12.6 9.91L12.6 9.91Q10.55 9.91 8.94 8.94L8.94 8.94Q8.4 7.67 8.23 6.32 8.06 4.98 8.06 3.61L8.06 3.61Q8.06 0.93 8.45-1.71 8.84-4.35 9.08-6.98L9.08-6.98 9.81-8.4Q9.91-9.77 10.16-11.16 10.4-12.55 10.64-13.92 10.89-15.28 11.06-16.65 11.23-18.02 11.18-19.38L11.18-19.38Q11.57-20.21 11.74-21.14 11.91-22.07 11.91-22.95L11.91-22.95Q11.91-23.44 11.87-23.93 11.82-24.41 11.57-24.85L11.57-24.85Q11.87-25.05 11.96-25.34 12.06-25.63 12.26-25.88L12.26-25.88Q12.4-27.78 12.5-29.66 12.6-31.54 12.6-33.4L12.6-33.4Q12.6-34.42 12.55-35.42 12.5-36.43 12.4-37.45L12.4-37.45Q12.35-37.84 12.23-38.38 12.11-38.92 12.11-39.21L12.11-39.21Q12.11-39.6 12.16-40.01 12.21-40.43 12.21-40.87L12.21-40.87Q12.21-41.36 12.11-41.82 12.01-42.29 11.77-42.68L11.77-42.68Q9.42-41.99 7.57-40.84 5.71-39.7 3.81-38.28L3.81-38.28Q3.03-37.74 2.1-37.01 1.17-36.28 0.34-35.89L0.34-35.89Q0.2-35.79-0.02-35.77-0.24-35.74-0.39-35.74L-0.39-35.74Q-0.93-35.74-1.37-35.82-1.81-35.89-2.25-35.89L-2.25-35.89Q-2.93-36.57-3.86-36.96L-3.86-36.96Q-4-37.55-4-38.23L-4-38.23Q-4-38.92-3.88-39.55-3.76-40.19-3.52-40.82L-3.52-40.82Q-2.93-41.02-2.27-41.26-1.61-41.5-1-41.82-0.39-42.14 0.1-42.55 0.59-42.97 0.88-43.6L0.88-43.6Q1.17-43.46 1.42-43.46L1.42-43.46Q1.66-43.46 1.86-43.51 2.05-43.55 2.29-43.6L2.29-43.6Q3.17-44.14 4.08-44.73 4.98-45.31 5.96-45.7L5.96-45.7Q6.25-45.8 6.3-45.95 6.35-46.09 6.3-46.39L6.3-46.39Q7.42-46.73 8.64-47.19 9.86-47.66 10.69-48.49L10.69-48.49 11.57-48.49Q12.3-49.02 13.13-49.37 13.96-49.71 14.82-50.02 15.67-50.34 16.5-50.71 17.33-51.07 18.07-51.66L18.07-51.66Q18.36-51.76 18.55-51.76L18.55-51.76Q18.8-51.76 19.09-51.66L19.09-51.66Q19.58-51.9 19.92-52.25L19.92-52.25 20.7-53.03Q21.48-53.03 22.12-53.17 22.75-53.32 23.34-53.56 23.93-53.81 24.49-54.13 25.05-54.44 25.73-54.79L25.73-54.79Q26.03-54.69 26.17-54.57 26.32-54.44 26.66-54.44L26.66-54.44Q27.15-54.79 27.71-54.96 28.27-55.13 28.86-55.22 29.44-55.32 30-55.47 30.57-55.62 31.01-56.01L31.01-56.01Q32.57-56.01 34.16-56.08 35.74-56.15 37.3-56.15L37.3-56.15Q39.55-56.15 41.87-55.81 44.19-55.47 46.04-54.1L46.04-54.1Q46.78-52.34 48.14-51.12L48.14-51.12Q48.24-50.59 48.36-50.12 48.49-49.66 48.68-49.22L48.68-49.22Q48.34-48.49 48.34-47.61L48.34-47.61Q48.34-46.73 48.51-45.87 48.68-45.02 48.68-44.19ZM44.14-45.36L44.14-45.36Q43.9-45.8 43.82-46.36 43.75-46.92 43.8-47.46L43.8-47.46Q43.16-47.95 42.82-48.73 42.48-49.51 41.85-49.9L41.85-49.9Q41.41-50.15 40.6-50.2 39.79-50.24 39.26-50.39L39.26-50.39Q38.62-50.59 38.4-50.78 38.18-50.98 37.5-50.98L37.5-50.98Q36.91-50.98 36.33-50.85 35.74-50.73 35.16-50.73L35.16-50.73Q34.67-50.73 34.23-50.93 33.79-51.12 33.3-51.12L33.3-51.12Q32.76-51.12 32.3-50.78 31.84-50.44 31.2-50.59L31.2-50.59Q30.91-50.34 30.88-50.2 30.86-50.05 30.81-49.98 30.76-49.9 30.57-49.9L30.57-49.9 29.88-49.9Q28.86-49.9 27.81-49.61 26.76-49.32 25.93-48.63L25.93-48.63Q25.78-48.68 25.66-48.71 25.54-48.73 25.39-48.73L25.39-48.73Q24.56-48.73 23.8-48.27 23.05-47.8 22.12-47.8L22.12-47.8Q21.53-47.22 20.7-46.88 19.87-46.53 19.02-46.22 18.16-45.9 17.43-45.48 16.7-45.07 16.31-44.29L16.31-44.29Q16.26-43.9 16.55-43.8 16.85-43.7 16.85-43.31L16.85-43.31Q16.85-42.97 16.72-42.48 16.6-41.99 16.6-41.5L16.6-41.5Q16.6-40.38 16.85-39.31 17.09-38.23 17.33-37.11L17.33-37.11Q17.09-36.96 16.99-36.67 16.89-36.38 16.65-36.23L16.65-36.23Q17.33-34.18 17.33-32.03L17.33-32.03Q17.33-30.32 16.97-28.69 16.6-27.05 16.46-25.34L16.46-25.34 16.46-25.29Q16.46-25 16.65-24.9 16.85-24.8 16.85-24.56L16.85-24.56Q16.85-24.41 16.8-24.32L16.8-24.32Q16.26-21 15.75-17.68 15.23-14.36 14.89-10.99L14.89-10.99 15.28-10.99Q16.55-10.99 17.55-11.74 18.55-12.5 19.24-13.43L19.24-13.43 20.02-13.43Q23.54-16.5 26.78-19.78 30.03-23.05 32.96-26.81L32.96-26.81Q33.35-26.81 33.5-27 33.64-27.2 33.98-27.29L33.98-27.29Q35.01-28.71 36.13-30.1 37.26-31.49 38.57-32.76L38.57-32.76Q38.62-33.25 38.84-33.64 39.06-34.03 39.31-34.38 39.55-34.72 39.75-35.11 39.94-35.5 39.94-36.04L39.94-36.04Q40.19-36.13 40.48-36.25 40.77-36.38 41.02-36.62L41.02-36.62Q41.11-37.11 41.36-37.5 41.6-37.89 41.6-38.38L41.6-38.38Q41.6-38.57 41.5-38.87L41.5-38.87Q42.29-39.21 42.72-39.99 43.16-40.77 43.41-41.72 43.65-42.68 43.77-43.65 43.9-44.63 44.14-45.36ZM108.3-8.5L108.3-8.5Q108.2-7.76 107.79-7.37 107.37-6.98 106.83-6.64L106.83-6.64Q106.59-6.69 106.37-6.71 106.15-6.74 105.91-6.74L105.91-6.74Q104.39-6.79 103.05-6.35 101.71-5.91 100.29-5.71L100.29-5.71Q99.8-5.62 99.39-5.64 98.97-5.66 98.53-5.57L98.53-5.57Q96.97-5.32 95.21-5.18 93.45-5.03 91.7-4.81 89.94-4.59 88.25-4.27 86.57-3.96 85.1-3.37L85.1-3.37Q84.96-3.47 84.81-3.59 84.67-3.71 84.47-3.71L84.47-3.71Q83.98-3.71 83.54-3.56 83.1-3.42 82.66-3.47L82.66-3.47Q82.18-3.17 81.61-3.05 81.05-2.93 80.49-2.86 79.93-2.78 79.39-2.64 78.85-2.49 78.37-2.1L78.37-2.1Q77.98-2.29 77.41-2.32 76.85-2.34 76.66-2.69L76.66-2.69Q75.53-2.15 74.29-2 73.04-1.86 71.77-1.9L71.77-1.9Q70.94-1.95 69.87-2.15 68.8-2.34 67.72-2.71 66.65-3.08 65.72-3.59 64.79-4.1 64.3-4.83L64.3-4.83Q63.96-5.32 63.82-5.91 63.67-6.49 63.13-6.79L63.13-6.79Q63.28-7.91 63.47-8.98 63.67-10.06 63.86-11.18L63.86-11.18Q64.84-12.01 65.72-12.94 66.6-13.87 67.38-14.89L67.38-14.89Q68.31-15.33 69.11-15.97 69.92-16.6 70.73-17.26 71.53-17.92 72.34-18.55 73.14-19.19 74.07-19.68L74.07-19.68Q74.22-20.02 74.48-20.24 74.75-20.46 75.05-20.68 75.34-20.9 75.58-21.17 75.83-21.44 75.93-21.83L75.93-21.83Q77.63-22.85 78.9-24.41 80.17-25.98 80.56-27.93L80.56-27.93Q79.73-28.61 78.68-28.83 77.63-29.05 76.51-29.15L76.51-29.15Q75.53-29.2 74.48-29.15 73.44-29.1 72.36-29.2L72.36-29.2Q71.29-28.86 70.14-28.76 68.99-28.66 67.87-28.59 66.75-28.52 65.65-28.3 64.55-28.08 63.52-27.49L63.52-27.49Q63.33-27.49 63.16-27.54 62.99-27.59 62.79-27.59L62.79-27.59Q61.23-27.64 59.86-26.98 58.49-26.32 57.18-25.68L57.18-25.68Q57.08-25.49 57.08-25.39L57.08-25.39Q57.08-25.1 57.2-24.83 57.32-24.56 57.32-24.27L57.32-24.27Q57.27-24.22 57.27-24.17 57.27-24.12 57.22-24.07L57.22-24.07Q57.18-23.83 57.1-23.63 57.03-23.44 56.93-23.19L56.93-23.19Q56.39-21.63 56.35-20.12L56.35-20.12Q56.3-18.85 56.35-17.63 56.39-16.41 56.35-15.14L56.35-15.14Q56.25-13.57 55.86-12.21L55.86-12.21Q56.1-11.04 56.3-9.74 56.49-8.45 56.78-7.18 57.08-5.91 57.49-4.71 57.91-3.52 58.59-2.44L58.59-2.44Q58.54-2.34 58.64-2.29 58.74-2.25 58.84-2.25L58.84-2.25 59.23-2.25Q59.47-2.25 59.42-2.05L59.42-2.05Q59.52-1.9 59.57-1.78 59.62-1.66 59.76-1.56L59.76-1.56Q59.86-1.42 59.76-1.17L59.76-1.17Q59.71-0.2 59.27 0.63 58.84 1.46 58.74 2.44L58.74 2.44Q58.15 2.59 57.66 2.59L57.66 2.59Q56.83 2.54 56.2 2.12 55.56 1.71 55.03 1.12 54.49 0.54 54-0.07 53.51-0.68 52.93-1.12L52.93-1.12Q52.59-2.49 52.27-4.15 51.95-5.81 51.22-6.98L51.22-6.98Q51.41-7.42 51.41-8.06L51.41-8.06Q51.46-9.03 51.24-9.99 51.02-10.94 51.12-11.91L51.12-11.91Q51.12-12.45 51.24-12.99 51.36-13.53 51.41-14.06L51.41-14.06Q51.46-14.89 51.24-15.67 51.02-16.46 51.07-17.29L51.07-17.29Q51.12-17.68 51.24-18.04 51.36-18.41 51.61-18.7L51.61-18.7Q51.36-19.29 51.46-19.82L51.46-19.82Q51.51-20.65 51.66-21.39 51.8-22.12 51.85-22.85L51.85-22.85Q51.85-23.24 51.8-23.61 51.76-23.97 51.66-24.32L51.66-24.32 51.22-24.46Q50.93-24.46 50.66-24.32 50.39-24.17 50.19-23.97 50-23.78 49.85-23.66 49.7-23.54 49.56-23.54L49.56-23.54Q49.46-23.54 49.34-23.56 49.22-23.58 49.12-23.58L49.12-23.58Q49.02-23.58 48.75-23.39 48.48-23.19 48.12-22.97 47.75-22.75 47.41-22.53 47.07-22.31 46.87-22.27L46.87-22.27Q46.34-22.36 46.02-22.63 45.7-22.9 45.43-23.17 45.16-23.44 44.87-23.66 44.58-23.88 44.14-23.83L44.14-23.83Q43.99-24.12 43.97-24.46 43.94-24.8 43.99-25.15L43.99-25.15 43.99-25.93Q44.33-26.56 44.89-26.98 45.46-27.39 46.09-27.69L46.09-27.69 47.36-28.27Q48-28.56 48.53-29L48.53-29 48.97-29Q49.85-28.96 50.51-29.35 51.17-29.74 51.76-30.25 52.34-30.76 52.95-31.3 53.56-31.84 54.29-32.13L54.29-32.13Q54.83-31.88 55.42-31.71 56-31.54 56.64-31.49L56.64-31.49Q57.27-31.49 57.96-31.69 58.64-31.88 59.03-32.42L59.03-32.42Q59.27-32.32 59.45-32.3 59.62-32.28 59.86-32.28L59.86-32.28Q60.59-32.23 61.33-32.5 62.06-32.76 62.74-33.15L62.74-33.15Q63.72-33.11 64.67-33.28 65.62-33.45 66.57-33.64 67.53-33.84 68.48-34.01 69.43-34.18 70.41-34.13L70.41-34.13Q72.02-34.08 73.58-34.42 75.14-34.77 76.76-34.67L76.76-34.67Q77.88-34.62 78.98-34.5 80.08-34.38 81.2-34.42L81.2-34.42Q81.83-34.13 82.35-33.91 82.86-33.69 83.64-33.79L83.64-33.79Q85.2-32.47 86.47-30.71L86.47-30.71 86.47-29.88Q86.42-28.76 86.08-27.69 85.74-26.61 85.28-25.56 84.81-24.51 84.27-23.51 83.74-22.51 83.25-21.53L83.25-21.53Q80.08-18.65 76.9-15.82 73.73-12.99 70.36-10.35L70.36-10.35Q70.26-9.86 70.09-9.47 69.92-9.08 69.87-8.64L69.87-8.64Q69.87-8.4 69.92-8.25L69.92-8.25Q70.26-8.15 70.53-7.89 70.8-7.62 70.7-7.18L70.7-7.18 71.14-7.18Q71.38-7.18 71.38-6.98L71.38-6.98 72.17-6.93Q74.02-6.84 75.88-7.03 77.73-7.23 79.61-7.47 81.49-7.71 83.35-7.93 85.2-8.15 87.06-8.2L87.06-8.2Q87.5-8.35 87.99-8.45 88.47-8.54 88.86-8.84L88.86-8.84 89.01-8.84Q89.35-8.84 89.52-8.64 89.69-8.45 90.04-8.4L90.04-8.4Q90.28-8.4 90.55-8.5 90.82-8.59 91.11-8.64L91.11-8.64Q91.79-8.84 92.55-8.89 93.31-8.94 94.04-9.03L94.04-9.03Q96.87-9.28 99.66-9.35 102.44-9.42 105.22-10.06L105.22-10.06Q105.47-9.72 105.91-9.59 106.35-9.47 106.83-9.35 107.32-9.23 107.74-9.08 108.15-8.94 108.3-8.5ZM130.76-3.56L130.76-3.56Q130.61-2.88 130.15-2.47 129.68-2.05 129.05-1.81 128.41-1.56 127.75-1.49 127.09-1.42 126.56-1.42L126.56-1.42Q126.31-1.42 126.09-1.44 125.87-1.46 125.63-1.46L125.63-1.46Q125.39-1.46 125.39-1.22 125.39-0.98 125.14-0.88L125.14-0.88Q124.9-0.98 124.65-1.03 124.41-1.07 124.16-1.07L124.16-1.07Q123.82-1.07 123.51-1.03 123.19-0.98 122.9-0.98L122.9-0.98Q122.5-0.98 122.33-1.07 122.16-1.17 122.04-1.29 121.92-1.42 121.8-1.56 121.67-1.71 121.43-1.81L121.43-1.81Q121.09-1.95 120.87-1.86 120.65-1.76 120.21-2.15L120.21-2.15Q119.62-2.64 119.21-3.34 118.79-4.05 118.4-4.83 118.01-5.62 117.57-6.4 117.13-7.18 116.55-7.76L116.55-7.76 116.16-7.76Q115.28-7.76 114.94-7.03L114.94-7.03Q114.69-7.18 114.45-7.4 114.2-7.62 113.91-7.76L113.91-7.76Q112.79-7.42 111.57-7.18 110.35-6.93 109.13-6.93L109.13-6.93 108.44-6.93Q108.15-6.93 107.81-7.03L107.81-7.03Q107.32-6.84 106.93-6.57 106.54-6.3 106.05-6.3L106.05-6.3Q105.76-6.3 105.37-6.49L105.37-6.49Q105.07-6.49 105.1-6.25 105.12-6.01 104.78-6.01L104.78-6.01 104.34-6.01Q103.66-6.01 103-5.96 102.34-5.91 101.66-5.91L101.66-5.91Q100.73-5.91 99.75-6.15L99.75-6.15Q99.51-6.01 99.21-6.01L99.21-6.01Q99.02-5.91 98.92-5.69 98.82-5.47 98.73-5.3 98.63-5.13 98.46-5 98.29-4.88 97.99-4.93L97.99-4.93Q97.9-4.35 97.5-4 97.11-3.66 97.11-2.98L97.11-2.98Q96.58-2.69 96.24-2.25 95.89-1.81 95.55-1.32 95.21-0.83 94.84-0.39 94.48 0.05 93.94 0.29L93.94 0.29Q93.7 0.59 93.79 1.22L93.79 1.22Q93.26 1.66 92.48 2 91.69 2.34 91.01 2.34L91.01 2.34Q89.59 2.34 89.06 0.83L89.06 0.83Q89.06 0.34 89.13-0.22 89.2-0.78 89.35-1.29 89.5-1.81 89.79-2.22 90.08-2.64 90.62-2.83L90.62-2.83Q90.62-3.27 90.33-3.44 90.03-3.61 90.08-4.05L90.08-4.05Q91.4-4.69 92.38-5.71 93.35-6.74 94.16-7.89 94.97-9.03 95.8-10.21 96.63-11.38 97.65-12.3L97.65-12.3 97.65-13.33Q99.12-14.89 99.56-16.85L99.56-16.85Q100.09-16.94 100.26-17.33 100.43-17.72 100.43-18.26L100.43-18.26Q100.68-18.26 100.75-18.48 100.83-18.7 101.17-18.6L101.17-18.6Q101.61-19.78 102.14-20.75 102.68-21.73 103.22-22.73 103.75-23.73 104.17-24.8 104.58-25.88 104.78-27.2L104.78-27.2Q105.46-27.25 105.54-27.86 105.61-28.47 105.71-28.96L105.71-28.96Q106.44-29.64 106.81-30.57 107.17-31.49 107.47-32.5 107.76-33.5 108.12-34.5 108.49-35.5 109.17-36.28L109.17-36.28 109.17-36.43Q109.17-36.67 108.98-36.74 108.78-36.82 108.78-37.06L108.78-37.06Q108.83-37.11 108.83-37.16L108.83-37.16Q109.42-37.4 109.71-37.96 110-38.53 110.59-38.77L110.59-38.77Q111.62-37.94 112.4-37.77 113.18-37.6 114.45-37.5L114.45-37.5Q115.08-36.82 115.16-35.86 115.23-34.91 115.47-33.98L115.47-33.98Q115.86-32.42 116.33-30.93 116.79-29.44 117.04-27.88L117.04-27.88Q117.18-26.95 117.57-26.12 117.96-25.29 118.11-24.41L118.11-24.41Q118.21-23.73 118.11-22.88 118.01-22.02 118.31-21.39L118.31-21.39 118.65-20.61Q118.89-20.07 119.06-19.48 119.23-18.9 119.38-18.31L119.38-18.31Q119.77-16.85 120.09-15.16 120.41-13.48 121.09-12.11L121.09-12.11Q121.33-11.62 121.85-11.43 122.36-11.23 122.99-11.16 123.63-11.08 124.24-11.11 124.85-11.13 125.29-11.13L125.29-11.13 125.78-11.13Q126.07-11.13 126.36-11.04L126.36-11.04Q126.56-10.64 126.56-10.35L126.56-10.35Q126.56-9.77 126.17-9.42 125.78-9.08 125.78-8.64L125.78-8.64Q125.78-8.4 125.97-8.11L125.97-8.11Q125.78-8.15 125.39-8.15L125.39-8.15Q124.26-8.15 123.19-7.76L123.19-7.76Q123.58-6.93 124.24-6.37 124.9-5.81 125.63-5.32L125.63-5.32Q126.12-5.71 126.66-5.71L126.66-5.71Q127.24-5.71 127.75-5.44 128.27-5.18 128.85-5.18L128.85-5.18Q129.29-5.18 129.49-5.32L129.49-5.32Q129.88-4.88 130.12-4.42 130.37-3.96 130.76-3.56ZM115.47-11.38L115.47-11.38Q115.38-12.21 115.16-12.57 114.94-12.94 114.79-13.48L114.79-13.48Q114.59-14.16 114.52-14.94 114.45-15.72 114.3-16.46L114.3-16.46Q113.96-18.12 113.54-19.78 113.13-21.44 112.5-23L112.5-23Q112.69-23.29 112.69-23.54L112.69-23.54 112.69-23.68Q112.25-24.17 112.06-24.88 111.86-25.59 111.69-26.29 111.52-27 111.25-27.61 110.98-28.22 110.4-28.61L110.4-28.61Q110.25-28.32 110.25-27.93L110.25-27.93Q110.25-27.59 110.32-27.29 110.4-27 110.4-26.66L110.4-26.66Q109.91-26.42 109.69-25.9 109.47-25.39 108.98-25.1L108.98-25.1Q108.59-23.54 107.86-22.14 107.12-20.75 106.32-19.38 105.51-18.02 104.78-16.63 104.05-15.23 103.61-13.72L103.61-13.72Q102.97-13.28 102.75-12.6 102.53-11.91 102.53-11.23L102.53-11.23Q102.97-10.99 103.54-10.96 104.1-10.94 104.63-10.94 105.17-10.94 105.66-10.84 106.15-10.74 106.54-10.35L106.54-10.35Q107.17-10.55 107.93-10.62 108.69-10.69 109.17-11.04L109.17-11.04Q110.15-10.69 111.27-10.69L111.27-10.69Q111.86-10.69 112.42-10.79 112.98-10.89 113.52-11.04L113.52-11.04Q113.96-10.94 114.2-10.72 114.45-10.5 114.94-10.55L114.94-10.55Q115.18-10.74 115.23-10.96 115.28-11.18 115.47-11.38ZM162.49-32.08L162.49-32.08Q162.39-31.49 162.22-31.08 162.05-30.66 162.15-29.98L162.15-29.98Q161.66-29.93 161.39-29.66 161.13-29.39 160.95-29.05 160.78-28.71 160.61-28.34 160.44-27.98 160.2-27.69L160.2-27.69Q160.59-25.93 160.64-24.12 160.69-22.31 160.88-20.56L160.88-20.56Q161.13-18.31 161.64-16.14 162.15-13.96 162.15-11.72L162.15-11.72Q162.15-11.04 162.13-10.45 162.1-9.86 162.1-9.23L162.1-9.23Q162.1-8.84 162.13-8.42 162.15-8.01 162.15-7.62L162.15-7.62Q162.15-6.2 161.78-4.79 161.42-3.37 161.22-1.95L161.22-1.95Q160.64-1.42 160.22-0.78 159.81-0.15 159.37 0.39 158.93 0.93 158.34 1.34 157.76 1.76 156.88 1.9L156.88 1.9Q156.73 2.39 156.32 2.64 155.9 2.88 155.61 3.32L155.61 3.32 155.51 3.32Q154.29 3.32 153.41 2.98 152.53 2.64 151.77 2.2 151.02 1.76 150.24 1.27 149.46 0.78 148.43 0.49L148.43 0.49Q147.06-0.63 145.94-1.98 144.82-3.32 143.4-4.39L143.4-4.39Q143.06-5.37 142.5-6.01 141.94-6.64 141.4-7.47L141.4-7.47Q141.15-7.81 141.03-8.11 140.91-8.4 140.72-8.79L140.72-8.79Q140.57-9.18 140.25-9.33 139.93-9.47 139.69-9.67L139.69-9.67Q139.3-11.18 138.57-12.45 137.83-13.72 136.86-14.89L136.86-14.89Q136.56-14.36 136.39-13.75 136.22-13.13 136.08-12.52 135.93-11.91 135.71-11.3 135.49-10.69 135.15-10.21L135.15-10.21 135.15-10.06Q135.15-9.81 135.34-9.77 135.54-9.72 135.54-9.47L135.54-9.47Q135.54-9.42 135.51-9.38 135.49-9.33 135.49-9.28L135.49-9.28Q135.25-9.08 135.12-8.79 135-8.5 134.61-8.45L134.61-8.45Q134.66-8.2 134.66-7.96L134.66-7.96 134.66-7.52Q134.66-6.1 134.34-4.69 134.03-3.27 134.03-1.81L134.03-1.81 134.03-1.17Q134.03-0.83 134.07-0.54L134.07-0.54Q134.17-0.24 134.37 0.05 134.56 0.34 134.56 0.59L134.56 0.59Q134.56 0.93 134.27 1.22L134.27 1.22Q134.61 1.46 135.05 1.76 135.49 2.05 135.86 2.42 136.22 2.78 136.47 3.2 136.71 3.61 136.71 4.1L136.71 4.1Q136.71 4.93 136.17 5.27 135.64 5.62 134.88 5.81 134.12 6.01 133.32 6.18 132.51 6.35 131.97 6.79L131.97 6.79 131.83 6.79Q131.24 6.79 130.95 6.45 130.66 6.1 130.07 6.1L130.07 6.1Q129.14 4.59 128.8 2.71 128.46 0.83 128.46-0.88L128.46-0.88Q128.46-2.98 128.83-5.08 129.19-7.18 129.7-9.23 130.22-11.28 130.83-13.31 131.44-15.33 131.97-17.38L131.97-17.38 132.02-17.53Q132.02-17.77 131.9-17.87 131.78-17.97 131.78-18.16L131.78-18.16Q131.78-18.26 131.83-18.26L131.83-18.26Q131.97-18.75 132.15-19.19 132.32-19.63 132.41-20.17L132.41-20.17Q132.71-21.53 132.83-22.97 132.95-24.41 132.98-25.83 133-27.25 133.07-28.69 133.15-30.13 133.39-31.54L133.39-31.54Q133.78-31.93 134.12-32.37 134.47-32.81 135-33.15L135-33.15Q135.98-33.11 136.96-32.86 137.93-32.62 138.81-32.08L138.81-32.08Q139.4-29.98 139.62-27.88 139.84-25.78 140.37-23.68L140.37-23.68 140.37-23.54Q140.37-23.29 140.64-23.32 140.91-23.34 141.06-23.14L141.06-23.14Q140.96-23 140.93-22.8 140.91-22.61 140.91-22.41L140.91-22.41 140.91-21.58Q141.01-21.19 141.15-20.75 141.3-20.31 141.79-20.21L141.79-20.21Q142.03-18.65 142.52-17.33 143.01-16.02 143.64-14.79 144.28-13.57 145.01-12.38 145.74-11.18 146.53-9.86L146.53-9.86Q147.75-8.94 148.63-7.74 149.5-6.54 150.41-5.44 151.31-4.35 152.46-3.52 153.61-2.69 155.46-2.49L155.46-2.49Q155.71-2.69 155.8-3.03L155.8-3.03 156.05-3.71Q156.19-4.05 156.36-4.32 156.54-4.59 156.88-4.74L156.88-4.74Q156.97-6.1 157.1-7.52 157.22-8.94 157.71-10.21L157.71-10.21Q157.46-10.64 157.46-11.28L157.46-11.28Q157.46-11.77 157.54-12.21 157.61-12.65 157.61-13.09L157.61-13.09Q157.61-14.01 157.22-14.6L157.22-14.6Q157.22-14.94 157.27-15.31 157.32-15.67 157.56-16.02L157.56-16.02Q157.17-16.99 156.95-18.07 156.73-19.14 156.73-20.26L156.73-20.26Q156.73-20.9 156.88-21.58L156.88-21.58Q156.58-22.31 156.49-23.29L156.49-23.29 156.29-25.29Q156.19-26.32 156-27.2 155.8-28.08 155.27-28.61L155.27-28.61Q155.56-29.05 155.56-29.64L155.56-29.64Q155.56-30.62 155.27-31.49 154.97-32.37 154.97-33.35L154.97-33.35Q154.97-34.03 155.27-34.72L155.27-34.72Q156.34-34.67 157.39-34.5 158.44-34.33 159.47-34.33L159.47-34.33Q159.76-33.94 160.15-33.69 160.54-33.45 160.98-33.23 161.42-33.01 161.83-32.76 162.25-32.52 162.49-32.08ZM197.84-22.8L197.84-22.8Q197.65-22.31 197.45-21.88 197.26-21.44 197.16-20.9L197.16-20.9Q196.82-20.65 196.4-20.53 195.99-20.41 195.55-20.29 195.11-20.17 194.74-20 194.37-19.82 194.18-19.48L194.18-19.48Q194.03-18.75 194.03-18.12L194.03-18.12Q194.03-17.29 194.33-16.7L194.33-16.7Q194.18-16.26 194.13-15.77 194.08-15.28 194.08-14.84L194.08-14.84Q194.08-13.23 194.47-11.65 194.86-10.06 194.91-8.45L194.91-8.45Q194.91-8.2 194.86-7.91 194.81-7.62 194.81-7.37L194.81-7.37Q194.81-6.35 195.6-6.01L195.6-6.01Q195.45-5.76 195.45-5.57L195.45-5.57Q195.45-5.18 195.55-4.88 195.64-4.59 195.6-4.25L195.6-4.25Q195.84-3.76 196.08-3.39 196.33-3.03 196.43-2.49L196.43-2.49Q196.08-1.81 195.6-1.25 195.11-0.68 194.91 0.15L194.91 0.15Q194.72 0.1 194.47 0.1L194.47 0.1Q194.13 0.1 193.94 0.24 193.74 0.39 193.62 0.61 193.5 0.83 193.35 1.05 193.2 1.27 192.96 1.37L192.96 1.37 192.81 1.37Q192.57 1.42 192.4 1.34 192.23 1.27 192.08 1.27L192.08 1.27Q191.98 1.27 191.69 1.37L191.69 1.37Q191.3 0.88 191.15 0.22 191.01-0.44 191.01-1.07L191.01-1.07Q191.01-1.76 191.2-2.29L191.2-2.29Q190.66-2.73 190.54-3.61 190.42-4.49 190.27-5.08L190.27-5.08Q189.88-6.88 189.37-8.59 188.86-10.3 188.76-12.11L188.76-12.11Q188.71-12.79 188.71-13.43L188.71-13.43 188.71-15.97Q188.71-16.6 188.76-17.19L188.76-17.19Q188.76-17.63 188.83-18.04 188.91-18.46 188.91-18.9L188.91-18.9Q188.91-19.48 188.52-20.02L188.52-20.02Q185.05-19.87 181.95-18.77 178.85-17.68 175.77-16.16L175.77-16.16Q175.58-15.04 175.53-13.96 175.48-12.89 175.48-11.77L175.48-11.77 175.48-9.62Q175.48-8.4 175.58-7.57L175.58-7.57Q175.82-6.15 177.02-5.4 178.21-4.64 179.43-4.25L179.43-4.25Q179.38-3.52 179.14-3 178.9-2.49 178.53-2.08 178.16-1.66 177.72-1.27 177.28-0.88 176.85-0.39L176.85-0.39Q176.45-0.63 176.06-0.73 175.67-0.83 175.23-0.85 174.79-0.88 174.36-0.93 173.92-0.98 173.48-1.12L173.48-1.12 172.4-2.59Q171.87-3.32 171.23-4.05L171.23-4.05 171.23-4.49Q171.23-5.81 170.74-7.03 170.25-8.25 170.01-9.52L170.01-9.52Q170.16-9.96 170.2-10.4 170.25-10.84 170.25-11.33L170.25-11.33Q170.25-12.3 170.18-13.23 170.11-14.16 170.2-15.09L170.2-15.09 169.96-15.09Q169.52-15.09 169.03-14.87 168.54-14.65 168.08-14.38 167.62-14.11 167.2-13.89 166.79-13.67 166.49-13.67L166.49-13.67Q166.35-13.67 166.2-13.72 166.05-13.77 165.86-13.77L165.86-13.77Q165.62-13.77 165.27-13.57 164.93-13.38 164.52-13.16 164.1-12.94 163.66-12.74 163.22-12.55 162.78-12.55L162.78-12.55Q162.1-12.55 161.42-13.13L161.42-13.13Q161.32-13.53 161.34-13.87 161.37-14.21 161.37-14.6L161.37-14.6Q161.37-14.99 161.22-15.43L161.22-15.43Q161.56-16.06 162.12-16.43 162.69-16.8 163.3-17.11 163.91-17.43 164.54-17.75 165.18-18.07 165.62-18.6L165.62-18.6 165.91-18.6Q166.59-18.6 167.15-18.9 167.71-19.19 168.45-19.14L168.45-19.14Q168.69-19.24 168.79-19.87L168.79-19.87 168.98-19.82Q170.06-19.82 170.89-20.56L170.89-20.56Q171.43-23.58 171.77-26.66 172.11-29.74 172.11-32.81L172.11-32.81Q172.11-33.11 171.91-33.4L171.91-33.4Q171.82-33.79 171.82-34.13L171.82-34.13 171.82-34.86Q171.82-35.4 171.87-35.99 171.91-36.57 172.11-37.16L172.11-37.16Q172.6-37.45 173.13-37.45L173.13-37.45Q173.77-37.45 174.38-37.28 174.99-37.11 175.58-37.01L175.58-37.01Q176.02-36.57 176.24-36.04 176.45-35.5 176.5-34.94 176.55-34.38 176.53-33.81 176.5-33.25 176.5-32.71L176.5-32.71Q176.5-31.64 176.75-30.62 176.99-29.59 176.99-28.61L176.99-28.61Q176.99-28.37 176.82-28.25 176.65-28.13 176.65-27.59L176.65-27.59Q176.65-27.05 176.75-26.46 176.85-25.88 176.85-25.29L176.85-25.29Q176.85-24.61 176.65-23.88 176.45-23.14 176.31-22.46L176.31-22.46Q179.24-22.71 182.31-23.19 185.39-23.68 188.17-24.76L188.17-24.76Q188.22-24.85 188.22-25.05L188.22-25.05Q188.22-25.34 188.17-25.63 188.12-25.93 188.12-26.27L188.12-26.27Q188.12-26.86 188.52-27.2L188.52-27.2Q188.27-28.56 188.17-29.93 188.08-31.3 188.08-32.67L188.08-32.67 188.08-35.45Q188.08-36.82 188.03-38.18L188.03-38.18Q188.42-38.43 188.86-38.43L188.86-38.43Q189.39-38.43 189.86-38.16 190.32-37.89 190.96-37.89L190.96-37.89Q191.4-37.89 191.69-38.04L191.69-38.04Q192.23-37.55 192.42-36.77 192.62-35.99 192.76-35.16 192.91-34.33 193.08-33.52 193.25-32.71 193.79-32.23L193.79-32.23 193.84-32.08Q193.84-31.88 193.64-31.79 193.45-31.69 193.45-31.4L193.45-31.4 193.45-31.2Q193.64-30.42 193.74-29.59 193.84-28.76 193.91-27.91 193.98-27.05 194.13-26.25 194.28-25.44 194.67-24.76L194.67-24.76Q194.91-24.8 195.3-24.8L195.3-24.8Q196.28-24.8 196.84-24.15 197.4-23.49 197.84-22.8ZM226.79-6.15L226.79-6.15Q226.79-5.32 226.38-4.71 225.96-4.1 226.06-3.22L226.06-3.22Q225.38-2.83 224.94-2.2 224.5-1.56 224.11-0.88L224.11-0.88Q220.89 1.22 217.2 2.51 213.51 3.81 209.61 3.81L209.61 3.81Q209.36 3.81 209.17 3.59 208.97 3.37 208.78 3.13 208.58 2.88 208.36 2.66 208.14 2.44 207.85 2.44L207.85 2.44Q207.51 2.44 207.31 2.59L207.31 2.59Q207.31 2.49 207.34 2.42 207.36 2.34 207.36 2.25L207.36 2.25Q207.36 1.66 207.21 1.05 207.07 0.44 207.07-0.15L207.07-0.15Q207.07-0.83 207.31-1.27L207.31-1.27 207.9-1.27Q208.39-1.27 208.85-1.34 209.31-1.42 209.85-1.42L209.85-1.42Q210.39-1.42 210.83-1.12L210.83-1.12Q213.51-1.22 215.93-2.12 218.35-3.03 220.84-3.91L220.84-3.91Q221.23-4.44 221.3-5.1 221.37-5.76 221.67-6.35L221.67-6.35Q220.4-7.42 219.1-8.03 217.81-8.64 216.1-8.45L216.1-8.45Q215.08-9.08 213.93-9.18 212.78-9.28 211.61-9.47L211.61-9.47Q211.32-9.52 211-9.59 210.68-9.67 210.34-9.67L210.34-9.67Q210.09-9.67 209.88-9.55 209.66-9.42 209.75-9.18L209.75-9.18Q209.51-9.57 209.09-9.64 208.68-9.72 208.39-10.01L208.39-10.01Q206.82-10.11 205.65-10.57 204.48-11.04 203.06-11.62L203.06-11.62Q202.67-11.77 202.31-11.84 201.94-11.91 201.6-12.11L201.6-12.11Q200.72-12.55 200.18-13.28 199.65-14.01 199.33-14.92 199.01-15.82 198.86-16.8 198.72-17.77 198.57-18.6L198.57-18.6Q199.01-19.38 199.38-20.21 199.74-21.04 199.99-21.97L199.99-21.97Q200.28-22.12 200.57-22.22 200.87-22.31 201.21-22.46L201.21-22.46Q201.16-22.56 201.16-22.71L201.16-22.71Q201.16-22.95 201.33-23.19 201.5-23.44 201.4-23.68L201.4-23.68Q202.48-24.66 203.48-25.71 204.48-26.76 205.21-28.03L205.21-28.03Q205.94-28.27 206.38-28.76 206.82-29.25 207.26-29.76 207.7-30.27 208.24-30.69 208.78-31.1 209.61-31.2L209.61-31.2Q209.8-31.54 210.14-31.76 210.49-31.98 210.83-32.18 211.17-32.37 211.46-32.62 211.76-32.86 211.9-33.3L211.9-33.3Q212.68-33.3 213.34-33.59 214-33.89 214.64-34.23 215.27-34.57 215.93-34.86 216.59-35.16 217.37-35.16L217.37-35.16Q217.57-35.16 217.76-35.13 217.96-35.11 218.2-35.06L218.2-35.06Q218.54-34.72 218.66-34.25 218.79-33.79 218.84-33.25 218.88-32.71 218.91-32.18 218.93-31.64 219.08-31.2L219.08-31.2Q218.64-30.37 218.13-29.54 217.61-28.71 216.78-28.27L216.78-28.27 216.69-28.27Q216.34-28.22 216.05-28.42 215.76-28.61 215.37-28.61L215.37-28.61Q215.12-28.61 214.98-28.47L214.98-28.47 214.73-28.22Q214.64-28.13 214.47-28.03 214.29-27.93 214-28.03L214-28.03Q213.32-27.78 213.46-27.2L213.46-27.2Q212.54-27.1 211.9-26.64 211.27-26.17 210.73-25.61 210.19-25.05 209.66-24.58 209.12-24.12 208.39-24.07L208.39-24.07Q207.56-22.61 206.36-21.48 205.16-20.36 204.38-18.95L204.38-18.95Q204.53-18.55 204.58-18.12 204.63-17.68 204.72-17.19L204.72-17.19Q205.16-16.6 205.77-16.16 206.38-15.72 206.97-15.28L206.97-15.28 207.12-15.28Q208.09-15.28 208.92-14.92 209.75-14.55 210.68-14.55L210.68-14.55Q211.17-14.55 211.51-14.75L211.51-14.75Q212.78-14.45 214.03-14.26 215.27-14.06 216.54-13.96L216.54-13.96Q217.18-13.87 217.83-13.87 218.49-13.87 219.08-13.72L219.08-13.72Q219.62-13.57 220.15-13.35 220.69-13.13 221.23-12.89L221.23-12.89Q222.35-12.4 223.35-11.82 224.35-11.23 225.13-10.42 225.92-9.62 226.35-8.57 226.79-7.52 226.79-6.15ZM260.09-7.91L260.09-7.91Q259.9-7.18 259.46-6.69 259.02-6.2 258.46-5.81 257.9-5.42 257.26-5.1 256.63-4.79 256.04-4.39L256.04-4.39 255.4-4.39Q253.35-4.39 252.26-5.4 251.16-6.4 250.57-7.89 249.99-9.38 249.72-11.08 249.45-12.79 249.06-14.21L249.06-14.21Q248.47-13.72 248.08-13.06 247.69-12.4 247.28-11.77 246.86-11.13 246.35-10.6 245.83-10.06 245-9.86L245-9.86Q244.86-9.52 244.69-9.18 244.52-8.84 244.47-8.45L244.47-8.45Q243.39-7.86 242.51-7.08 241.64-6.3 240.76-5.47 239.88-4.64 238.97-3.88 238.07-3.13 236.95-2.64L236.95-2.64Q236.9-2.69 236.75-2.69L236.75-2.69Q236.17-2.69 235.68-2.42 235.19-2.15 234.6-2.15L234.6-2.15Q234.21-2.15 233.9-2.29 233.58-2.44 233.26-2.64 232.94-2.83 232.6-2.93 232.26-3.03 231.87-2.98L231.87-2.98Q231.38-3.86 230.58-4.61 229.77-5.37 229.57-6.35L229.57-6.35Q229.48-6.79 229.45-7.25 229.43-7.71 229.33-8.2L229.33-8.2Q229.18-8.94 228.94-9.69 228.7-10.45 228.55-11.23L228.55-11.23Q228.79-12.55 229.01-14.14 229.23-15.72 229.55-17.31 229.87-18.9 230.43-20.34 230.99-21.78 231.87-22.8L231.87-22.8 231.82-23.14Q231.82-23.93 232.11-24.61 232.41-25.29 232.75-25.93 233.09-26.56 233.33-27.2 233.58-27.83 233.43-28.61L233.43-28.61Q234.02-28.91 234.65-29.1 235.29-29.3 235.97-29.3L235.97-29.3Q236.61-29.3 237.14-29.1L237.14-29.1Q237.05-28.71 237.49-28.61L237.49-28.61 237.49-28.47Q237.49-27.44 237.24-26.46 237-25.49 236.65-24.54 236.31-23.58 236-22.63 235.68-21.68 235.53-20.7L235.53-20.7Q235.34-20.65 235.26-20.51 235.19-20.36 235.14-20.21 235.09-20.07 234.99-19.97 234.9-19.87 234.7-19.87L234.7-19.87Q234.41-18.16 234.09-16.48 233.77-14.79 233.77-13.09L233.77-13.09Q233.77-12.06 233.97-10.99 234.16-9.91 234.7-8.94L234.7-8.94 234.9-8.98Q235.43-8.98 235.75-8.74 236.07-8.5 236.61-8.25L236.61-8.25Q237-8.35 237.34-8.52 237.68-8.69 237.63-9.13L237.63-9.13Q238.27-9.18 238.71-9.45 239.15-9.72 239.49-10.06L239.49-10.06 240.22-10.74Q240.61-11.08 241.15-11.23L241.15-11.23Q241.15-11.52 241.29-11.67L241.29-11.67 241.59-11.96Q241.73-12.11 241.81-12.28 241.88-12.45 241.83-12.79L241.83-12.79Q242.42-12.84 242.73-13.09 243.05-13.33 243.32-13.65 243.59-13.96 243.83-14.31 244.08-14.65 244.47-14.89L244.47-14.89Q244.81-15.63 245.42-16.85 246.03-18.07 246.64-19.38 247.25-20.7 247.71-21.9 248.18-23.1 248.18-23.73L248.18-23.73Q248.18-23.97 248.06-24.17 247.93-24.37 247.98-24.61L247.98-24.61 247.98-24.76Q248.37-25.24 248.69-25.83 249.01-26.42 249.37-26.95 249.74-27.49 250.18-27.93 250.62-28.37 251.3-28.61L251.3-28.61Q252.08-28.37 252.89-28.27 253.7-28.17 254.43-27.88L254.43-27.88Q254.48-26.66 254.67-25.05 254.87-23.44 255.36-22.31L255.36-22.31Q255.36-21.68 255.33-21.09 255.31-20.51 255.31-19.92L255.31-19.92Q255.31-18.95 255.38-17.92 255.45-16.89 255.7-16.02L255.7-16.02Q255.36-15.28 255.36-14.45L255.36-14.45Q255.36-13.33 255.7-12.33 256.04-11.33 256.19-10.21L256.19-10.21Q256.82-9.33 257.85-9.33L257.85-9.33Q258.09-9.33 258.26-9.38 258.43-9.42 258.63-9.52L258.63-9.52Q259.02-9.08 259.34-8.67 259.65-8.25 260.09-7.91Z" opacity="1" transform="matrix(1,0,0,1,0,0)" fill="#000000" class="undefined-text-0" data-fill-palette-color="primary" id="text-0"></path></svg></g></svg></g></svg></g></svg></g><g></g></svg></g></svg></g></svg></g></svg></g><defs></defs></svg><rect width="320" height="360" fill="none" stroke="none" visibility="hidden"></rect></g></svg></g></svg>